<svg xmlns="http://www.w3.org/2000/svg" viewBox="0 0 51.21 51.19"><defs><style>.cls-1{fill:#51a7ff;}</style></defs><g id="Layer_2" data-name="Layer 2"><g id="Layer_1-2" data-name="Layer 1"><path class="cls-1" d="M7,16.87A4.48,4.48,0,0,0,3.69,20,5,5,0,0,0,5,24.94l9.82,9.82L.33,49.29a1.1,1.1,0,0,0,0,1.57,1.12,1.12,0,0,0,1.57,0L16.43,36.33l9.82,9.82a5,5,0,0,0,4.9,1.34,4.48,4.48,0,0,0,3.17-3.3,1.09,1.09,0,0,0,0-.26l-.06-11.3L49.88,22.24a4.87,4.87,0,0,0-.19-6.87L35.81,1.5a4.88,4.88,0,0,0-7,0L18.55,16.9,7.26,16.83Z"/></g></g></svg>