<svg xmlns="http://www.w3.org/2000/svg" viewBox="0 0 44 44"><defs><style>.cls-1{fill:#e6e8eb;}</style></defs><g id="Layer_2" data-name="Layer 2"><g id="Layer_1-2" data-name="Layer 1"><path class="cls-1" d="M44,22a21.92,21.92,0,0,1-6.4,15.49,14.82,14.82,0,0,0-.89-3.7,15.66,15.66,0,0,0-8.9-9.09,9.43,9.43,0,1,0-11.62,0,15.66,15.66,0,0,0-8.9,9.09,14.82,14.82,0,0,0-.89,3.7A22,22,0,1,1,44,22ZM28.29,17.29A6.29,6.29,0,1,0,22,23.57,6.29,6.29,0,0,0,28.29,17.29ZM22,26.71A12.61,12.61,0,0,0,9.78,36.35a12.93,12.93,0,0,0-.35,2.94c0,.25,0,.51,0,.77a21.93,21.93,0,0,0,25.08,0c0-.26,0-.52,0-.77a12.93,12.93,0,0,0-.34-2.94A12.63,12.63,0,0,0,22,26.71Z"/></g></g></svg>