<svg xmlns="http://www.w3.org/2000/svg" viewBox="0 0 72 72"><defs><style>.cls-1{fill:#71767a;}</style></defs><g id="Layer_2" data-name="Layer 2"><g id="Layer_1-2" data-name="Layer 1"><path class="cls-1" d="M69.93,28.42A3.9,3.9,0,0,0,71.44,23l-6-9.94a4.24,4.24,0,0,0-5.67-1.46l-.17.09a9.07,9.07,0,0,1-8.79,0l-.34-.19a8.34,8.34,0,0,1-4.37-7.29V4A4.08,4.08,0,0,0,42,0H30a4.08,4.08,0,0,0-4.15,4v.19a8.32,8.32,0,0,1-4.37,7.28l-.34.19a9,9,0,0,1-8.79,0l-.17-.1A4.25,4.25,0,0,0,6.53,13L.56,23a3.9,3.9,0,0,0,1.51,5.45A8.68,8.68,0,0,1,6.62,36a8.69,8.69,0,0,1-4.55,7.58A3.9,3.9,0,0,0,.56,49l6,9.94a4.24,4.24,0,0,0,5.67,1.46l.17-.09a9.07,9.07,0,0,1,8.79,0l.34.19a8.34,8.34,0,0,1,4.37,7.29V68A4.08,4.08,0,0,0,30,72H42a4.08,4.08,0,0,0,4.15-4v-.19a8.32,8.32,0,0,1,4.37-7.28l.34-.19a9,9,0,0,1,8.79,0l.17.1A4.25,4.25,0,0,0,65.47,59l6-9.94a3.9,3.9,0,0,0-1.51-5.45,8.59,8.59,0,0,1,0-15.16ZM36,49.62c-7.82,0-14.17-6.1-14.17-13.62S28.19,22.38,36,22.38,50.19,28.48,50.19,36,43.84,49.62,36,49.62Z"/></g></g></svg>