<svg xmlns="http://www.w3.org/2000/svg" xmlns:xlink="http://www.w3.org/1999/xlink" viewBox="0 0 259.49 40"><defs><style>.cls-1{fill:#fff;}.cls-2{fill:url(#puple);}.cls-3{fill:url(#blue);}.cls-4{fill:url(#blue-2);}</style><linearGradient id="puple" y1="16.59" x2="34.83" y2="16.59" gradientUnits="userSpaceOnUse"><stop offset="0" stop-color="#0563ea"/><stop offset="1" stop-color="#6040ff"/></linearGradient><linearGradient id="blue" y1="23.41" x2="34.83" y2="23.41" gradientUnits="userSpaceOnUse"><stop offset="0" stop-color="#00bdff"/><stop offset="1" stop-color="#0092ff"/></linearGradient><linearGradient id="blue-2" x1="12.79" y1="20" x2="22.04" y2="20" xlink:href="#blue"/></defs><g id="Layer_2" data-name="Layer 2"><g id="Layer_1-2" data-name="Layer 1"><path class="cls-1" d="M50.37,32l-.6-3.24c-.14-.76-.36-1.83-.65-3.2L46.25,12.43,45.21,8c1.48,0,2.67,0,3.59,0S51,8,52.39,8c.31,1.91.57,3.31.75,4.2l1.48,7.09q.47,2.28,1,5.57l.58-2.46,2.09-8.12L59.75,8c1.6,0,3,0,4.08,0s2.56,0,4.06,0L69,15.4l1.53,9.43.69-2.59c.13-.44.26-.9.4-1.35s.43-1.37.88-2.73l2.14-6.75,1-3.41,3.52,0,3.49,0L75.84,28.43,74.75,32c-1.76,0-3.3,0-4.61,0s-2.91,0-4.59,0l-.4-2.41L63.6,21.2c-.08-.5-.15-1-.21-1.55s-.16-1.36-.28-2.49l-.61,2.73c-.15.61-.31,1.22-.48,1.84L59.19,32c-1.77,0-3.24,0-4.41,0S52.06,32,50.37,32Z"/><path class="cls-1" d="M84.73,32q.43-4.55.64-7.6c.13-2,.27-4.75.4-8.13S86,10.65,86,9.55L86,8Q90.1,8,96,8q5.43,0,9.57,0l0,.58c0,.14,0,.65-.09,1.52l-.1,1.91c0,.41,0,.83,0,1.25-2.26-.09-4.16-.14-5.7-.14H96.2c-.6,0-1.52,0-2.77.08l-.22,4c1.39,0,3,.05,4.84.05.66,0,2.4,0,5.24-.12-.12,1.5-.23,3.29-.34,5.36l-4.67,0c-1.61,0-3.42.05-5.43.13l-.21,4.27h2l3.71,0,3.64-.09c.54,0,1.44-.06,2.7-.14-.14,1.73-.26,3.53-.35,5.38q-4.29,0-9.4,0l-7.74,0Z"/><path class="cls-1" d="M105.33,32l1.46-2.53,9.09-17.13,1-1.91c.28-.56.67-1.37,1.18-2.43,2.06,0,3.56,0,4.51,0,1.65,0,3.18,0,4.59,0l2.56,7.33,5.22,14.1,1,2.57-3.69,0c-1,0-2.44,0-4.35,0q-.78-2.91-2.23-6.82h-8.85q-1.53,3.09-3.16,6.82l-4,0C108.75,32,107.31,32,105.33,32Zm13.61-11.94h5.46q-2-6.19-2.23-6.82c-.77,1.72-1.43,3.12-2,4.22Z"/><path class="cls-1" d="M140.16,32l-.65-2.15L135.22,17.5,131.84,8c1.6,0,3,0,4.25,0,.76,0,2,0,3.59,0,.27,1.05.48,1.84.63,2.38q.31,1,1.2,3.81l2.59,8.33c.25.86.57,2,1,3.39l.8-2L152,10.45c.11-.25.23-.53.36-.85s.35-.85.65-1.6c1.7,0,3.06,0,4.09,0,.65,0,1.93,0,3.84,0q-1.8,3.35-4.06,7.81l-6.06,12c-.59,1.17-1.24,2.56-2,4.17-2,0-3.38,0-4.22,0S142.34,32,140.16,32Z"/><path class="cls-1" d="M160.88,32c.3-3,.51-5.56.65-7.6s.27-4.75.4-8.13.2-5.62.2-6.72V8c2.76,0,6.11,0,10,0q5.43,0,9.58,0l0,.58c0,.14,0,.65-.08,1.52L181.5,12c0,.41,0,.83,0,1.25-2.27-.09-4.16-.14-5.7-.14h-3.42c-.59,0-1.51,0-2.77.08l-.21,4c1.38,0,3,.05,4.83.05.66,0,2.41,0,5.24-.12-.11,1.5-.22,3.29-.33,5.36l-4.67,0c-1.62,0-3.43.05-5.43.13l-.21,4.27h2l3.71,0,3.63-.09c.54,0,1.44-.06,2.71-.14-.14,1.73-.26,3.53-.35,5.38q-4.29,0-9.41,0l-7.73,0Z"/><path class="cls-1" d="M184.65,32l.35-3.69.68-12.52.2-5V8c1.82,0,3.43,0,4.82,0,1,0,2.4,0,4.21,0l7.5,13.65,1,2c.13-2,.27-4.73.4-8.28s.21-6,.21-7.37c1.44,0,2.59,0,3.46,0L211,8l-.42,5.24-.79,14.56-.11,4.2c-1.52,0-2.95,0-4.27,0-1.1,0-2.63,0-4.57,0-.61-1.15-1.06-2-1.36-2.5l-2.94-5c-1-1.64-1.87-3.21-2.69-4.71-.54-1-1.1-2-1.67-3.13L191.76,25l-.18,7c-1.45,0-2.55,0-3.32,0S186.42,32,184.65,32Z"/><path class="cls-1" d="M214.16,32c.29-3,.51-5.56.64-7.6s.28-4.75.41-8.13.2-5.62.2-6.72V8c2.76,0,6.11,0,10,0q5.43,0,9.58,0l0,.58c0,.14,0,.65-.08,1.52L234.78,12c0,.41,0,.83,0,1.25-2.27-.09-4.16-.14-5.7-.14h-3.42c-.59,0-1.51,0-2.77.08l-.21,4c1.38,0,3,.05,4.83.05.66,0,2.41,0,5.24-.12-.11,1.5-.22,3.29-.33,5.36l-4.67,0c-1.62,0-3.43.05-5.43.13l-.21,4.27h2l3.71,0,3.63-.09c.54,0,1.44-.06,2.71-.14-.14,1.73-.26,3.53-.35,5.38q-4.29,0-9.41,0l-7.73,0Z"/><path class="cls-1" d="M243.25,32q.88-8.55,1.05-18.81l-7.48.19.09-2c0-1,.08-2.18.1-3.43q5,0,11.64,0L253,8h4.21l2.29,0-.11,1.72c0,.93-.08,1.69-.09,2.3s0,1.05,0,1.36c-2.51-.13-4.57-.19-6.2-.19h-1.23c-.18,2.07-.31,4-.41,5.74q-.19,3.77-.3,7.32c-.07,2.37-.1,4.29-.1,5.75l-3.73,0Z"/><path class="cls-2" d="M34.47,9.73,17.77.09a.75.75,0,0,0-.71,0L.36,9.73a.73.73,0,0,0-.36.63v5.37l1.43-.87L17,5.36a.7.7,0,0,1,.77,0l12.88,8.46a.73.73,0,0,1,.33.56.75.75,0,0,1-.27.59L24,20.5l-.06.05-.1.07-6.05,3.51a.75.75,0,0,1-.71,0l-5.63-3.27L5.74,25.51l11.69,7.67,16-9.72,1.43-.86V10.36a.73.73,0,0,0-.36-.63Z"/><path class="cls-3" d="M17.79,34.64a.72.72,0,0,1-.37.11.7.7,0,0,1-.4-.12L4.14,26.17a.71.71,0,0,1-.32-.56A.7.7,0,0,1,4.08,25l6.77-5.52.07-.05a.22.22,0,0,1,.09-.07l6-3.51a.7.7,0,0,1,.71,0l5.63,3.26,5.7-4.65L17.4,6.81l-16,9.72L0,17.41V29.64a.72.72,0,0,0,.36.62l16.7,9.65a.75.75,0,0,0,.71,0l16.7-9.65a.7.7,0,0,0,.36-.62V24.27l-1.43.87Z"/><path class="cls-4" d="M12.79,20l4.63,2.68L22,20l-4.62-2.69Z"/></g></g></svg>