<svg xmlns="http://www.w3.org/2000/svg" viewBox="0 0 44 44"><defs><style>.cls-1{fill:#e6e8eb;fill-rule:evenodd;}</style></defs><g id="Layer_2" data-name="Layer 2"><g id="Layer_1-2" data-name="Layer 1"><path class="cls-1" d="M1.06,6.5A6.5,6.5,0,0,1,6.54,1.18a102,102,0,0,1,30.9,0,6.52,6.52,0,0,1,5.5,5.33,72.47,72.47,0,0,1,0,24.67,6.51,6.51,0,0,1-5.48,5.32c-2.81.44-5.46.74-8.25.94l-3.08,4.4a5,5,0,0,1-8.25,0l-3.09-4.42c-2.71-.2-5.57-.52-8.23-.92a6.53,6.53,0,0,1-5.5-5.34,72.41,72.41,0,0,1,0-24.66ZM31.75,21.34A2.79,2.79,0,1,0,29,18.55,2.79,2.79,0,0,0,31.75,21.34Zm-19.5,0a2.79,2.79,0,1,0-2.8-2.79A2.79,2.79,0,0,0,12.25,21.34Zm9.75,0a2.79,2.79,0,1,0-2.8-2.79A2.79,2.79,0,0,0,22,21.34Z"/></g></g></svg>