<svg xmlns="http://www.w3.org/2000/svg" xmlns:xlink="http://www.w3.org/1999/xlink" viewBox="0 0 213.82 100"><defs><style>.cls-1{fill:#202936;}.cls-2{fill:url(#puple);}.cls-3{fill:url(#blue);}.cls-4{fill:url(#blue-2);}</style><linearGradient id="puple" x1="76.44" y1="26.49" x2="132.05" y2="26.49" gradientUnits="userSpaceOnUse"><stop offset="0" stop-color="#0563ea"/><stop offset="1" stop-color="#6040ff"/></linearGradient><linearGradient id="blue" x1="76.44" y1="37.37" x2="132.05" y2="37.37" gradientUnits="userSpaceOnUse"><stop offset="0" stop-color="#00bdff"/><stop offset="1" stop-color="#0092ff"/></linearGradient><linearGradient id="blue-2" x1="96.85" y1="31.93" x2="111.63" y2="31.93" xlink:href="#blue"/></defs><g id="Layer_2" data-name="Layer 2"><g id="Layer_1-2" data-name="Layer 1"><path class="cls-1" d="M5.14,100l-.59-3.23C4.41,96,4.19,95,3.9,93.58L1,80.48,0,76.06l3.58,0,3.58,0c.32,1.9.57,3.3.76,4.19l1.47,7.07q.46,2.28,1,5.56L11,90.42l2.08-8.1,1.44-6.26,4.07,0,4.05,0,1.11,7.38,1.53,9.4L26,90.26c.13-.44.26-.89.4-1.35s.44-1.36.88-2.71l2.14-6.74,1-3.4h7l-6.8,20.38L29.47,100c-1.75,0-3.28,0-4.59,0s-2.91,0-4.58,0l-.4-2.4-1.54-8.37c-.09-.5-.16-1-.22-1.55s-.16-1.36-.27-2.48l-.62,2.71c-.15.61-.31,1.23-.47,1.85L14,100c-1.76,0-3.23,0-4.4,0S6.84,100,5.14,100Z"/><path class="cls-1" d="M39.43,100c.29-3,.51-5.54.64-7.58s.27-4.74.41-8.11.2-5.61.2-6.71l0-1.54q4.14,0,10,0,5.41,0,9.56,0l0,.57c0,.14,0,.65-.09,1.52L60,80.06c0,.41,0,.82,0,1.24-2.25-.09-4.15-.14-5.68-.14H50.88c-.59,0-1.51,0-2.77.08l-.21,4q2.07.06,4.83.06c.65,0,2.39,0,5.23-.13-.12,1.5-.23,3.28-.34,5.35l-4.66,0c-1.61,0-3.42,0-5.42.12l-.21,4.26h2c.59,0,1.83,0,3.7,0l3.63-.09c.53,0,1.43-.06,2.7-.14-.14,1.73-.26,3.52-.35,5.37-2.86,0-6,0-9.39,0l-7.72,0Z"/><path class="cls-1" d="M60,100l1.46-2.53,9.07-17.08,1-1.91c.29-.56.68-1.37,1.18-2.42l4.51,0c1.65,0,3.17,0,4.58,0l2.56,7.31,5.2,14.07,1,2.56-3.69,0-4.34,0q-.77-2.9-2.22-6.81H71.45Q69.92,96.28,68.3,100l-4,0ZM73.57,88.09H79q-2-6.18-2.22-6.81c-.78,1.71-1.43,3.12-2,4.22Z"/><path class="cls-1" d="M94.75,100l-.65-2.14L89.82,85.53l-3.37-9.47,4.24,0,3.58,0c.26,1,.48,1.83.63,2.37.21.7.61,2,1.19,3.81l2.59,8.3c.25.86.57,2,.95,3.39l.8-2,6.12-13.41c.1-.25.22-.53.36-.85s.34-.84.64-1.59l4.09,0,3.82,0q-1.78,3.33-4,7.78l-6,12q-.87,1.75-2,4.16l-4.21,0Z"/><path class="cls-1" d="M115.43,100c.29-3,.5-5.54.64-7.58s.27-4.74.4-8.11.21-5.61.21-6.71l0-1.54q4.14,0,10,0c3.62,0,6.8,0,9.56,0l0,.57c0,.14,0,.65-.09,1.52L136,80.06c0,.41,0,.82,0,1.24-2.26-.09-4.15-.14-5.69-.14h-3.41c-.59,0-1.51,0-2.76.08l-.21,4c1.38,0,3,.06,4.82.06.66,0,2.4,0,5.23-.13-.12,1.5-.23,3.28-.33,5.35l-4.67,0c-1.61,0-3.41,0-5.41.12l-.21,4.26h2c.6,0,1.83,0,3.7,0l3.63-.09c.54,0,1.44-.06,2.7-.14-.14,1.73-.26,3.52-.35,5.37-2.85,0-6,0-9.38,0l-7.72,0Z"/><path class="cls-1" d="M139.14,100l.35-3.68.69-12.49.19-5V76.06l4.81,0,4.2,0,7.49,13.61,1,2c.13-2,.27-4.72.41-8.26s.2-6,.2-7.35l3.46,0,3.43,0L165,81.28l-.79,14.53-.1,4.19c-1.53,0-3,0-4.27,0l-4.56,0q-.91-1.73-1.35-2.49l-2.95-5q-1.46-2.46-2.68-4.71c-.53-.94-1.09-2-1.66-3.12L146.24,93l-.18,7-3.31,0Z"/><path class="cls-1" d="M168.59,100c.3-3,.51-5.54.65-7.58s.26-4.74.4-8.11.2-5.61.2-6.71l0-1.54q4.14,0,10,0,5.41,0,9.56,0l0,.57c0,.14,0,.65-.09,1.52l-.1,1.91c0,.41,0,.82,0,1.24-2.25-.09-4.15-.14-5.68-.14H180c-.59,0-1.51,0-2.76.08l-.22,4q2.07.06,4.83.06c.65,0,2.4,0,5.23-.13-.12,1.5-.23,3.28-.34,5.35l-4.66,0c-1.61,0-3.42,0-5.42.12l-.21,4.26h2c.6,0,1.83,0,3.7,0l3.63-.09c.54,0,1.44-.06,2.7-.14-.14,1.73-.26,3.52-.35,5.37-2.86,0-6,0-9.39,0l-7.72,0Z"/><path class="cls-1" d="M197.62,100q.87-8.52,1-18.77l-7.47.19.09-1.94c.05-1,.08-2.18.11-3.42q5,0,11.61,0l4.33,0h6.48l-.1,1.71c-.05.93-.08,1.69-.1,2.29s0,1.06,0,1.36c-2.5-.12-4.57-.19-6.19-.19h-1.23c-.17,2.07-.31,4-.4,5.73-.13,2.51-.23,4.94-.3,7.31s-.11,4.27-.11,5.73l-3.71,0Z"/><path class="cls-2" d="M131.48,15.54,104.81.14a1.21,1.21,0,0,0-1.14,0L77,15.54a1.15,1.15,0,0,0-.57,1v8.58l2.28-1.38L103.65,8.55a1.14,1.14,0,0,1,1.22,0l20.56,13.51a1.12,1.12,0,0,1,.11,1.83l-10.82,8.82-.1.08a.91.91,0,0,1-.16.11l-9.65,5.6a1.16,1.16,0,0,1-1.14,0l-9-5.21-9.09,7.42L104.26,53l25.51-15.52,2.28-1.38V16.53a1.17,1.17,0,0,0-.57-1Z"/><path class="cls-3" d="M104.84,55.31a1.16,1.16,0,0,1-.6.17,1.19,1.19,0,0,1-.63-.19L83.05,41.78a1.09,1.09,0,0,1-.51-.9A1.1,1.1,0,0,1,83,40l10.81-8.82.1-.08.15-.11,9.66-5.6a1.11,1.11,0,0,1,1.14,0l9,5.21,9.09-7.42L104.22,10.88,78.72,26.4l-2.28,1.39V47.33a1.15,1.15,0,0,0,.57,1l26.66,15.4a1.21,1.21,0,0,0,1.14,0l26.67-15.4a1.17,1.17,0,0,0,.57-1V38.75l-2.28,1.39Z"/><path class="cls-4" d="M96.85,31.93l7.39,4.29,7.39-4.29-7.39-4.29Z"/></g></g></svg>